name analog
datacolumns 19
datarows 27
range 0.0 0.013000000000000001
endheader
time	ground_force_vx	ground_force_vy	ground_force_vz	ground_force_px	ground_force_py	ground_force_pz	l_ground_force_vx	l_ground_force_vy	l_ground_force_vz	l_ground_force_px	l_ground_force_py	l_ground_force_pz	ground_torque_x	ground_torque_y	ground_torque_z	l_ground_torque_x	l_ground_torque_y	l_ground_torque_z
0.0	-0.0	-0.0	-0.0	1.1563760042190552	20.017406463623047	-252.8768310546875	-1.168704628944397	-18.73574447631836	-249.5977478027344	-0.0	-0.0	-0.0	-0.0	-0.0	-0.0	73373.1640625	-11640.7421875	-836.1831665039062
0.0005	-0.0	-0.0	-0.0	1.2217731475830078	19.64262580871582	-250.8787841796875	-1.5197888612747192	-18.804750442504883	-250.29563903808597	-0.0	-0.0	-0.0	-0.0	-0.0	-0.0	73170.734375	-11485.5087890625	-859.5907592773438
0.001	-0.0	-0.0	-0.0	1.3450133800506592	19.718366622924805	-252.9039764404297	-1.5967941284179688	-19.157974243164062	-249.6124420166016	-0.0	-0.0	-0.0	-0.0	-0.0	-0.0	73712.015625	-11876.552734375	-919.0103149414062
0.0015	-0.0	-0.0	-0.0	1.087341547012329	19.800390243530277	-253.9496917724609	-1.519690752029419	-19.081336975097656	-246.956787109375	-0.0	-0.0	-0.0	-0.0	-0.0	-0.0	73063.1796875	-11367.4267578125	-836.5206298828125
0.002	-0.0	-0.0	-0.0	0.8062955141067505	20.123083114624023	-253.28387451171875	-1.6007007360458374	-19.07359504699707	-249.2327423095703	-0.0	-0.0	-0.0	-0.0	-0.0	-0.0	73076.0390625	-11606.6025390625	-866.240234375
0.0025	-0.0	-0.0	-0.0	0.4627539813518524	20.047666549682617	-255.5964813232422	-1.8629264831542969	-19.062164306640625	-248.595947265625	-0.0	-0.0	-0.0	-0.0	-0.0	-0.0	72865.1953125	-11547.8779296875	-954.1295776367188
0.003	-0.0	-0.0	-0.0	0.6413847804069519	19.958452224731445	-255.36248779296875	-1.9477488994598389	-18.55916786193848	-247.89764404296875	-0.0	-0.0	-0.0	-0.0	-0.0	-0.0	72707.8203125	-11388.322265625	-959.249267578125
0.0035	-0.0	-0.0	-0.0	0.528396487236023	19.51955795288086	-254.98231506347656	-1.9476993083953855	-18.54363250732422	-246.22938537597656	-0.0	-0.0	-0.0	-0.0	-0.0	-0.0	73159.2109375	-11624.0126953125	-1014.672607421875
0.004	-0.0	-0.0	-0.0	0.0824734717607498	19.87271499633789	-253.93637084960935	-2.032600879669189	-18.566837310791016	-248.8993682861328	-0.0	-0.0	-0.0	-0.0	-0.0	-0.0	73027.4765625	-11352.3662109375	-1014.7388916015624
0.0045000000000000005	-0.0	-0.0	-0.0	0.3500292301177978	19.45765495300293	-255.67529296875	-2.040348052978516	-18.6397705078125	-248.1852264404297	-0.0	-0.0	-0.0	-0.0	-0.0	-0.0	72709.609375	-11223.98046875	-1155.236083984375
0.005	-0.0	-0.0	-0.0	0.3533998131752014	19.632762908935547	-254.68360900878903	-2.221717119216919	-18.89690971374512	-247.2614898681641	-0.0	-0.0	-0.0	-0.0	-0.0	-0.0	72714.4140625	-11390.6884765625	-1155.357421875
0.0055	-0.0	-0.0	-0.0	0.6177185773849487	19.53643035888672	-255.33572387695312	-2.3835415840148926	-18.962099075317383	-248.8992462158203	-0.0	-0.0	-0.0	-0.0	-0.0	-0.0	73037.7578125	-11573.94921875	-1131.14794921875
0.006	-0.0	-0.0	-0.0	0.1028589829802513	19.79035758972168	-254.6697540283203	-2.399108648300171	-18.808618545532227	-248.1542816162109	-0.0	-0.0	-0.0	-0.0	-0.0	-0.0	72767.453125	-11367.88671875	-1044.7252197265625
0.006500000000000001	-0.0	-0.0	-0.0	0.6110672354698181	20.22255516052246	-252.5634613037109	-2.2023375034332275	-18.881635665893555	-246.89573669433597	-0.0	-0.0	-0.0	-0.0	-0.0	-0.0	72773.640625	-11126.97265625	-1102.6417236328125
0.007	-0.0	-0.0	-0.0	0.5420523881912231	20.12990379333496	-253.3375244140625	-2.3756895065307617	-18.712547302246094	-245.8794860839844	-0.0	-0.0	-0.0	-0.0	-0.0	-0.0	72574.140625	-11462.9951171875	-1048.5966796875
0.0075	-0.0	-0.0	-0.0	0.7856765389442444	19.79383087158203	-253.2709045410156	-2.306480407714844	-18.447439193725582	-246.15188598632807	-0.0	-0.0	-0.0	-0.0	-0.0	-0.0	72889.765625	-11342.662109375	-966.13720703125
0.008	-0.0	-0.0	-0.0	1.0603893995285034	19.265670776367188	-253.9229888916016	-1.886229872703552	-18.53595352172852	-246.2436065673828	-0.0	-0.0	-0.0	-0.0	-0.0	-0.0	72825.8203125	-11382.7919921875	-1071.357666015625
0.0085	-0.0	-0.0	-0.0	1.163151741027832	19.502498626708984	-252.49661254882807	-2.117297887802124	-18.808616638183597	-246.8501892089844	-0.0	-0.0	-0.0	-0.0	-0.0	-0.0	72832.5390625	-11506.5947265625	-924.5575561523438
0.009000000000000001	-0.0	-0.0	-0.0	1.1528143882751465	19.34475517272949	-253.93637084960935	-2.2019059658050537	-18.39065361022949	-245.8495635986328	-0.0	-0.0	-0.0	-0.0	-0.0	-0.0	72751.4296875	-11574.810546875	-928.4747924804688
0.0095	-0.0	-0.0	-0.0	0.974522829055786	19.786949157714844	-252.8768310546875	-1.5314929485321045	-18.639760971069336	-246.48568725585935	-0.0	-0.0	-0.0	-0.0	-0.0	-0.0	72886.1171875	-11312.6064453125	-900.963623046875
0.01	-0.0	-0.0	-0.0	1.1631698608398438	19.786949157714844	-253.9091796875	-2.097553968429565	-18.55931663513184	-245.8182373046875	-0.0	-0.0	-0.0	-0.0	-0.0	-0.0	72568.5546875	-11624.6552734375	-920.5236206054688
0.0105	-0.0	-0.0	-0.0	1.588926911354065	19.87944984436035	-253.60989379882807	-1.238072633743286	-18.79707336425781	-246.8043975830078	-0.0	-0.0	-0.0	-0.0	-0.0	-0.0	72651.25	-11579.501953125	-809.1777954101562
0.011	-0.0	-0.0	-0.0	1.152922749519348	20.04412841796875	-256.74835205078125	-1.6894187927246094	-18.38260078430176	-246.8656005859375	-0.0	-0.0	-0.0	-0.0	-0.0	-0.0	72823.578125	-11837.109375	-833.8462524414062
0.0115	-0.0	-0.0	-0.0	1.341609239578247	19.72195816040039	-254.7110595703125	-1.5041247606277466	-18.639816284179688	-247.8509063720703	-0.0	-0.0	-0.0	-0.0	-0.0	-0.0	73015.953125	-11652.068359375	-813.3519897460938
0.012	-0.0	-0.0	-0.0	1.334770679473877	19.800485610961918	-256.7216186523437	-1.2380566596984863	-18.486373901367188	-246.56234741210935	-0.0	-0.0	-0.0	-0.0	-0.0	-0.0	72897.9921875	-11764.2841796875	-778.1433715820312
0.0125	-0.0	-0.0	-0.0	1.1665875911712646	19.951520919799805	-255.32196044921875	-1.3957775831222534	-18.808603286743164	-245.54644775390625	-0.0	-0.0	-0.0	-0.0	-0.0	-0.0	72711.25	-11591.0849609375	-719.0220947265625
0.013000000000000001	-0.0	-0.0	-0.0	1.0809422731399536	20.12612533569336	-254.6289825439453	-1.411415457725525	-18.92064666748047	-246.83453369140625	-0.0	-0.0	-0.0	-0.0	-0.0	-0.0	72778.4609375	-11766.138671875	-837.7332153320312
